<?xml version="1.0" encoding="UTF-8" standalone="no"?>
<svg width="348px" height="513px" viewBox="0 0 348 513" version="1.1" xmlns="http://www.w3.org/2000/svg" xmlns:xlink="http://www.w3.org/1999/xlink" xmlns:sketch="http://www.bohemiancoding.com/sketch/ns">
    <!-- Generator: Sketch 3.3.2 (12043) - http://www.bohemiancoding.com/sketch -->
    <title>desktop</title>
    <desc>Created with Sketch.</desc>
    <defs>
        <linearGradient x1="43.7767932%" y1="29.6912371%" x2="59.228692%" y2="64.2582474%" id="linearGradient-1">
            <stop stop-color="#CFD8DC" offset="0%"></stop>
            <stop stop-color="#90A4AE" offset="100%"></stop>
        </linearGradient>
    </defs>
    <g id="Page-1" stroke="none" stroke-width="1" fill="none" fill-rule="evenodd" sketch:type="MSPage">
        <g id="isometric-material-icons" sketch:type="MSLayerGroup" transform="translate(-1384.000000, -625.000000)">
            <g id="desktop" transform="translate(1384.000000, 625.000000)" sketch:type="MSShapeGroup">
                <g id="Group" transform="translate(76.000000, 369.000000)">
                    <path d="M48.4,2 L64.8,41.9 C66.9,47 64.9,52.8 60.2,55.6 L0.6,90.8 L88.8,141.7 L148.8,106.8 C153.6,104.1 155.6,98.2 153.5,93.1 L137.2,53.2 L48.4,2 L48.4,2 Z" id="Shape" fill="#78909C"></path>
                    <path d="M43.9,0.6 L60.3,40.5 C62.4,45.6 60.4,51.4 55.7,54.2 L0.6,86.7 L88.8,137.6 L144.4,105.3 C149.2,102.6 151.2,96.7 149.1,91.6 L132.8,51.7 L43.9,0.6 L43.9,0.6 Z" id="Shape" fill="#CFD8DC"></path>
                    <path d="M43.9,0.6 L60.3,40.5 C62.4,45.6 60.4,51.4 55.7,54.2 L44.1,60.8 L133.3,112.3 L144.3,105.4 C149.1,102.7 151.1,96.8 149,91.7 L132.7,51.8 L43.9,0.6 L43.9,0.6 Z" id="Shape" opacity="0.2" fill="#78909C"></path>
                    <path d="M0.6,86.8 L0.6,90.8 L88.8,141.7 L88.8,137.7 L0.6,86.8 Z" id="Shape" fill="#90A4AE"></path>
                </g>
                <path d="M323.7,195.7 L6.1,12.3 L25,1.4 L342.5,184.8 L323.7,195.7 Z" id="Shape" fill="#CFD8DC"></path>
                <path d="M347.4,498 L328.6,508.8 L328.6,204.3 L347.4,193.4 L347.4,498 Z" id="Shape" fill="#90A4AE"></path>
                <path d="M344.6,363.6 L342,365 L342,255.6 L344.6,254.1 L344.6,363.6 Z" id="Shape" fill="#546E7A"></path>
                <path d="M344.6,403.2 L342,404.7 L342,379.2 L344.6,377.7 L344.6,403.2 Z" id="Shape" fill="#546E7A"></path>
                <path d="M342.5,184.8 C343.8,185.5 347.4,188.2 347.4,193.3 L328.6,204.2 C328.6,202.7 324.9,196.4 323.7,195.7 L342.5,184.8 L342.5,184.8 Z" id="Shape" fill="url(#linearGradient-1)"></path>
                <path d="M322.4,512.4 L4.9,329 C1.9,327.2 0,324 0,320.5 L0,277.5 L0,15.9 C0,12.7 3.4,10.8 6.2,12.3 L323.7,195.7 C326.7,197.5 328.6,200.7 328.6,204.2 L328.6,467.1 L328.6,508.8 C328.6,510.4 327.7,511.7 326.5,512.4 C325.4,513.1 323.8,513.2 322.4,512.4 L322.4,512.4 Z" id="Shape" fill="#B0BEC5"></path>
                <path d="M0,277.4 L0,15.9 C0,12.7 3.4,10.8 6.2,12.3 L323.7,195.7 C326.7,197.5 328.6,200.7 328.6,204.2 L328.6,467.1 L0,277.4 L0,277.4 Z" id="Shape" fill="#263238"></path>
                <path d="M0,277.4 L0,15.9 C0,12.7 3.4,10.8 6.2,12.3 L323.7,195.7 C326.7,197.5 328.6,200.7 328.6,204.2 L328.6,467.1 L0,277.4 L0,277.4 Z" id="Shape" fill="#263238"></path>
                <path d="M326.6,512.2 C327.8,511.5 328.6,510.2 328.6,508.7 L347.4,497.8 C347.4,499.4 346.6,500.6 345.4,501.3 L326.6,512.2 L326.6,512.2 Z" id="Shape" fill="#90A4AE"></path>
                <path d="M25,1.4 C23.6,0.6 22.1,0.7 20.9,1.4 L2.1,12.3 C3.3,11.6 4.8,11.5 6.2,12.3 L25,1.4 L25,1.4 Z" id="Shape" fill="#CFD8DC"></path>
                <path d="M94,90.1 L52.9,66.4 C52.5,66.2 52.3,65.8 52.3,65.3 L52.3,61.3 C52.3,60.4 53.3,59.8 54.2,60.2 L95.3,83.9 C95.7,84.1 95.9,84.5 95.9,85 L95.9,89 C95.9,90 94.8,90.5 94,90.1 L94,90.1 Z" id="Shape" fill="#263238"></path>
                <path d="M14.1,42.5 L14.1,265.6 L310.1,436.5 L310.1,213.9 L14.1,42.5 Z" id="Shape" fill="#F57C00"></path>
                <path d="M0,42.5 L0,15.9 C0,12.7 3.4,10.8 6.2,12.3 L323.7,195.7 C326.7,197.5 328.6,200.7 328.6,204.2 L328.6,436.4 L0,42.5 L0,42.5 Z" id="Shape" opacity="0.1" fill="#ECEFF1"></path>
            </g>
        </g>
    </g>
</svg>