<?xml version="1.0" encoding="utf-8"?>
<!-- Generator: Adobe Illustrator 18.0.0, SVG Export Plug-In . SVG Version: 6.00 Build 0)  -->
<!DOCTYPE svg PUBLIC "-//W3C//DTD SVG 1.1//EN" "http://www.w3.org/Graphics/SVG/1.1/DTD/svg11.dtd">
<svg version="1.1" id="Слой_1" xmlns="http://www.w3.org/2000/svg" xmlns:xlink="http://www.w3.org/1999/xlink" x="0px" y="0px"
	 viewBox="0 0 285.8 283.2" enable-background="new 0 0 285.8 283.2" xml:space="preserve">
<g>
	<g>
		<path fill="#A6CA5D" d="M240.2,35.8H45.6c-5.6,0-10.1,4.5-10.1,10.1v129.6c0,5.6,4.5,10.1,10.1,10.1h18.9h175.7
			c5.6,0,10.1-4.5,10.1-10.1V45.9C250.3,40.3,245.8,35.8,240.2,35.8z"/>
	</g>
	<path fill="#91B359" d="M64.5,225.8c0,5.6,3.8,7.6,8.5,4.6l69.7-44.8H64.5V225.8z"/>
	<path fill="#FFFFFF" d="M107.8,110.1c0,6-4.9,10.9-10.9,10.9c-6,0-10.9-4.9-10.9-10.9c0-6,4.9-10.9,10.9-10.9
		C102.9,99.2,107.8,104.1,107.8,110.1z"/>
	<path fill="#FFFFFF" d="M153.9,110.1c0,6-4.9,10.9-10.9,10.9c-6,0-10.9-4.9-10.9-10.9c0-6,4.9-10.9,10.9-10.9
		C149,99.2,153.9,104.1,153.9,110.1z"/>
	<path fill="#FFFFFF" d="M200,110.1c0,6-4.9,10.9-10.9,10.9c-6,0-10.9-4.9-10.9-10.9c0-6,4.9-10.9,10.9-10.9
		C195.1,99.2,200,104.1,200,110.1z"/>
	<path fill="#91B359" d="M104.6,102.4c2,2,3.2,4.7,3.2,7.7c0,6-4.9,10.9-10.9,10.9c-2.5,0-4.8-0.9-6.7-2.3l0,0l66.8,66.8h30.9
		L104.6,102.4z M104.5,102.3L104.5,102.3C104.5,102.3,104.5,102.3,104.5,102.3L104.5,102.3z"/>
	<path fill="#91B359" d="M150.6,102.3L150.6,102.3C150.7,102.3,150.7,102.3,150.6,102.3L150.6,102.3z M150.8,102.4
		c2,2,3.2,4.7,3.2,7.7c0,6-4.9,10.9-10.9,10.9c-2.5,0-4.8-0.9-6.7-2.3l0,0l66.8,66.8H234L150.8,102.4z"/>
	<path fill="#91B359" d="M196.8,102.4c2,2,3.2,4.7,3.2,7.7c0,6-4.9,10.9-10.9,10.9c-2.5,0-4.8-0.9-6.7-2.3l0,0l64.4,64.4
		c2.2-1.9,3.6-4.6,3.6-7.7v-19.6L196.8,102.4z M196.7,102.3L196.7,102.3C196.7,102.3,196.8,102.3,196.7,102.3L196.7,102.3z"/>
	<polygon fill="#7A9658" points="142.7,185.6 64.5,185.6 95.1,216.2 	"/>
</g>
</svg>
