<?xml version="1.0" encoding="UTF-8" standalone="no"?>
<svg width="474px" height="465px" viewBox="0 0 474 465" version="1.1" xmlns="http://www.w3.org/2000/svg" xmlns:xlink="http://www.w3.org/1999/xlink" xmlns:sketch="http://www.bohemiancoding.com/sketch/ns">
    <!-- Generator: Sketch 3.3.2 (12043) - http://www.bohemiancoding.com/sketch -->
    <title>face</title>
    <desc>Created with Sketch.</desc>
    <defs>
        <circle id="path-1" cx="11.4633098" cy="11" r="11"></circle>
        <circle id="path-2" cx="11" cy="11" r="11"></circle>
        <path d="M200.992955,62.3714479 C173.628343,72.283643 139.623698,98.736034 139.623695,124.602426 C139.623693,138.924537 132.753276,158.054306 130.164804,175.923759 C128.078376,190.32736 130.164804,203.276536 130.164804,217.122876 C130.164804,248.147319 131.93267,333.705383 159.079946,367.603518 C186.227222,401.501652 209.550079,430.609186 240.8494,437.389482 C272.148721,444.169779 315.900969,435.141533 329.36918,417.419436 C342.83739,399.697339 367.133381,367.85845 373.520406,337.794105 C379.907431,307.729759 381,293.5 381,263 C381,232.5 377.237792,211.594026 377.237787,181.860752 C377.237782,152.127477 361.388634,74.7169982 312.579323,62.3714477 C263.770013,50.0258972 228.357566,52.4592528 200.992955,62.3714479 Z M189.845485,193.858894 C202.569937,193.858894 213.69123,203.612336 214.622218,208.152808 C215.553207,212.69328 203.920752,216.282041 194.01903,218.470539 C184.117307,220.659037 164.550495,213.828078 166.217185,208.152808 C167.883876,202.477539 177.121034,193.858894 189.845485,193.858894 Z M307.736898,190.63292 C308.769933,190.46468 309.808731,190.374488 310.845485,190.374488 C323.067089,190.374488 337.914715,199.361048 334.581333,202.738666 C333.879322,203.449993 333.097663,204.350912 332.135967,205.34167 C328.531209,209.055361 322.396924,214.031292 308.446178,215.016084 C300.213276,215.59725 286.118206,213.255643 286.118206,208.081804 C286.118206,203.346859 296.59217,192.447948 307.736898,190.63292 Z" id="path-3"></path>
        <path id="path-4" d="M305.821766,91.6030977 C305.821766,91.6030977 268.770269,85.6099572 238.155182,72.3049789 C207.540094,59.0000006 165.209164,79.3862996 151.921117,99.1931506 C138.633071,119.000002 142.367937,137.424413 142.367937,137.424413 C142.367937,137.424413 133.776641,159.496939 133.776641,177.577413 L133.776641,211.774648 C133.776641,233.595236 132.074749,250.500005 130,250.500006 C127.925251,250.500006 125.455619,211.774652 125.455619,211.774652 C125.455619,211.774652 118,186.748962 118,159.791908 C118,132.834853 125.384056,111.053014 121.692028,105.123082 C118,99.1931508 133.132435,99.2965047 138.45416,93.1146474 C143.775885,86.9327901 135.555837,75.4282054 146.309885,75.4282056 C157.063933,75.4282058 188.77634,57.5641242 188.77634,57.5641242 C188.77634,57.5641242 208.866175,42.2515934 221.321486,42.2515931 C233.776796,42.2515927 247.790242,34.8101102 256.007032,34.8101099 C264.223822,34.8101096 297.279678,37.7589271 305.821761,43.4014056 C314.363843,49.0438841 302.672959,47.6453757 318.348633,54.689593 C334.024306,61.7338102 360.740285,74.4560341 369.610897,91.6030961 C378.481509,108.750158 382.35572,118.094001 382.355713,142.863417 C382.355705,167.632833 379.499994,206.53765 379.5,223 C379.500006,239.46235 376.344372,191.826285 376.344368,174.06661 C376.344366,161.64147 376.320181,155.158445 369.610901,137.424413 C366.73038,129.810592 365.007512,114.818754 357.591468,105.123083 C332.902049,72.8443583 305.421653,54.7929488 296.082614,61.8048653 C286.743574,68.8167818 305.821766,91.6030977 305.821766,91.6030977 Z"></path>
        <path id="path-5" d="M206.891196,156.256334 C215.950677,159.718904 216.222131,168.310715 216.222131,172.626365 C216.22213,176.942016 209.468072,175.840313 194.948484,172.626365 C180.428895,169.412418 169.061761,162.599963 156.093584,175.890318 C152.196361,179.884362 152.768262,180.202099 147.288133,183.529693 C144.508371,178.823557 148.991034,173.857204 151.13515,170.413652 C153.766086,166.188243 159.298921,157.44133 172.509946,154.917833 C185.720971,152.394336 197.831716,152.793764 206.891196,156.256334 Z"></path>
        <path id="path-6" d="M271.076308,181.795435 C269.359096,177.356369 271.760466,167.794079 279.21005,161.520745 C286.659635,155.247411 296.070774,158.927312 317.647863,154.880329 C339.224952,150.833347 350.09078,158.763659 354.378691,169.18626 C358.666603,179.608861 361.600985,178.481479 343.224204,171.791058 C324.847422,165.100637 323.937109,169.197625 312.831488,171.791058 C301.725867,174.384491 275.644932,185.983341 271.076308,181.795435 Z"></path>
        <path id="path-7" d="M202.5,354.499999 C194.914261,341.118983 187.134562,340.092563 191.5,338 C195.865438,335.907437 224.992508,333.90742 233.177703,333.90742 C241.362897,333.907421 250.120662,336.602604 259.098279,336.602604 C268.075895,336.602604 277.342966,331.284994 289.525067,333.90742 C301.707169,336.529847 320.499994,336.901542 320.499999,340.193018 C320.500004,343.484495 298.327116,395.219683 262.698187,395.219683 C242.787393,395.219683 222.44499,384.971071 202.5,354.499999 Z"></path>
        <path id="path-8" d="M225.5,257.5 C217.562446,263.856903 203.361836,279.381591 221.17048,283.880924 C238.979124,288.380258 239.500001,300.000002 255.000001,296.000002"></path>
        <path id="path-9" d="M290.08922,261.492075 C298.134599,266.400664 304.268497,283.638314 285.913366,283.638314 C267.558234,283.638314 264.585635,286.882931 256.76081,294.139213"></path>
    </defs>
    <g id="Page-1" stroke="none" stroke-width="1" fill="none" fill-rule="evenodd" sketch:type="MSPage">
        <g id="Oval-1-Copy-+-Oval-1-Copy-3" sketch:type="MSLayerGroup" transform="translate(301.000000, 197.000000)">
            <g id="Oval-1-Copy">
                <use fill="#BBBDB7" fill-rule="evenodd" sketch:type="MSShapeGroup" xlink:href="#path-1"></use>
                <use fill="none" xlink:href="#path-1"></use>
            </g>
            <circle id="Oval-1-Copy-3" fill="#7F7F7F" sketch:type="MSShapeGroup" cx="11.4633098" cy="11" r="5"></circle>
        </g>
        <g id="Oval-1-+-Oval-1-Copy-2" sketch:type="MSLayerGroup" transform="translate(182.000000, 202.000000)">
            <g id="Oval-1">
                <use fill="#C0C0C0" fill-rule="evenodd" sketch:type="MSShapeGroup" xlink:href="#path-2"></use>
                <use fill="none" xlink:href="#path-2"></use>
            </g>
            <circle id="Oval-1-Copy-2" fill="#797979" sketch:type="MSShapeGroup" cx="11" cy="11" r="5"></circle>
        </g>
        <g id="Face">
            <use fill="#FCFCFC" fill-rule="evenodd" sketch:type="MSShapeGroup" xlink:href="#path-3"></use>
            <use fill="none" xlink:href="#path-3"></use>
            <use fill="none" xlink:href="#path-3"></use>
        </g>
        <g id="Hair">
            <use fill="none" sketch:type="MSShapeGroup" xlink:href="#path-4"></use>
            <use fill="none" xlink:href="#path-4"></use>
            <use fill="#737373" fill-rule="evenodd" xlink:href="#path-4"></use>
            <use fill="none" xlink:href="#path-4"></use>
        </g>
        <path id="Path-5" stroke="#979797" sketch:type="MSShapeGroup" d=""></path>
        <g id="Path-6">
            <use fill="#717171" fill-rule="evenodd" sketch:type="MSShapeGroup" xlink:href="#path-5"></use>
            <use fill="none" xlink:href="#path-5"></use>
        </g>
        <g id="Path-7">
            <use fill="#747474" fill-rule="evenodd" sketch:type="MSShapeGroup" xlink:href="#path-6"></use>
            <use fill="none" xlink:href="#path-6"></use>
        </g>
        <path id="Path-8" stroke="#979797" sketch:type="MSShapeGroup" d=""></path>
        <path d="M192.3282,353.688165 C182.636947,336.593087 186.751082,336.593087 192.3282,333.919708 C197.905317,331.246329 213.779897,325.889467 224.236991,325.889467 C234.694084,325.889467 245.882671,329.332731 257.352133,329.332731 C268.821595,329.332731 280.660852,322.539155 296.224242,325.889467 C311.787632,329.239779 324.784736,332.388022 324.784742,336.593087 C324.784748,340.798153 307.469405,404.219683 261.951239,404.219683 C236.513966,404.219683 217.809161,392.616848 192.3282,353.688165 Z M207.201387,356.056757 C199.615648,342.67574 202.835949,342.67574 207.201387,340.583177 C211.566825,338.490614 223.992508,334.297579 232.177703,334.297579 C240.362897,334.297579 249.120662,336.992763 258.098279,336.992763 C267.075895,336.992763 276.342966,331.675153 288.525067,334.297579 C300.707169,336.920005 310.880534,339.384264 310.880538,342.67574 C310.880543,345.967217 297.327116,395.609841 261.698187,395.609841 C241.787393,395.609841 227.146378,386.527828 207.201387,356.056757 Z" id="Path-9" fill="#D1D1D1" sketch:type="MSShapeGroup"></path>
        <g id="Path-9-Copy-3">
            <use fill="#656565" fill-rule="evenodd" sketch:type="MSShapeGroup" xlink:href="#path-7"></use>
            <use fill="none" xlink:href="#path-7"></use>
        </g>
        <g id="Path-10">
            <use stroke="#E3E1E1" stroke-width="3" stroke-linecap="round" stroke-linejoin="round" sketch:type="MSShapeGroup" xlink:href="#path-8"></use>
            <use stroke="none" xlink:href="#path-8"></use>
        </g>
        <path id="Path-11" stroke="#979797" sketch:type="MSShapeGroup" d=""></path>
        <path id="Path-12" stroke="#979797" sketch:type="MSShapeGroup" d=""></path>
        <path id="Path-13" stroke="#979797" sketch:type="MSShapeGroup" d=""></path>
        <g id="Path-14">
            <use stroke="#D7D7D7" stroke-width="2" stroke-linecap="round" sketch:type="MSShapeGroup" xlink:href="#path-9"></use>
            <use stroke="none" xlink:href="#path-9"></use>
        </g>
        <path id="Path-18" stroke="#979797" sketch:type="MSShapeGroup" d=""></path>
        <path d="M221.557166,171.97098 C221.557166,171.97098 237.735105,200.347692 239.000001,213.47098 C240.264896,226.594268 226.5,252.500002 226.5,252.500002 L244.500001,239.500002 C244.500001,239.500002 250.500001,226.47098 250.500001,213.47098 C250.500001,200.47098 233.557166,184 233.557166,184 L221.557166,171.97098 Z" id="Path-19" fill="#E2E2E2" sketch:type="MSShapeGroup"></path>
        <path d="M174.226266,333.877513 C165.726267,358.752624 187.226267,393.877508 187.226267,393.877508 C187.226267,393.877508 169.226264,345.528072 181.726266,328.377511 C194.226268,311.22695 201.575231,297.39881 211.075229,293.11117 C220.575227,288.823529 182.726266,309.002402 174.226266,333.877513 Z" id="Path-20" fill="#E4E0E0" sketch:type="MSShapeGroup"></path>
        <path d="M317.709535,321.377511 C309.209535,350.385437 322.709535,386.877508 322.709535,386.877508 L328.939806,393.877508 C328.939806,393.877508 305.209533,341.377511 317.709535,321.377511 C330.209537,301.377511 350.709535,276.877511 345.209535,283.877511 C339.709535,290.877511 326.209535,292.369584 317.709535,321.377511 Z" id="Path-20-Copy" fill="#E3E3E3" sketch:type="MSShapeGroup" transform="translate(330.099782, 338.266782) scale(-1, 1) translate(-330.099782, -338.266782) "></path>
        <path d="M270.236305,213.97098 C270.236305,213.97098 266.943419,226.736069 270.236305,233.72098 C272.443419,238.402735 273.633336,243.641034 281.339781,246.97098 C289.046226,250.300925 293.898422,254.97098 293.898422,254.97098 C293.898422,254.97098 280.320502,239.470818 276.898421,233.72098 C273.487168,227.989336 270.236305,213.97098 270.236305,213.97098 Z" id="Path-21" fill="#E0E0E0" sketch:type="MSShapeGroup"></path>
        <path d="M197.546508,213.97098 C197.546508,213.97098 193.701626,227.761705 202.285949,231.47098 C210.870271,235.180255 227.046508,239.97098 227.046508,239.97098 C227.046508,239.97098 218.171508,237.054314 209.296508,228.304314 C200.421508,219.554314 197.546508,213.97098 197.546508,213.97098 Z" id="Path-21-Copy" fill="#DFDFDF" sketch:type="MSShapeGroup" transform="translate(211.867282, 226.970980) scale(-1, 1) translate(-211.867282, -226.970980) "></path>
        <path d="M232,70 L217.5,41 L131.5,104.5 L122,131.5 L122,171 C122,171 133.5,334.5 153.5,361.5 C173.5,388.5 217.5,431.5 217.5,431.5 C217.5,431.5 305.669214,448.246444 312.5,431.5 C314.732793,426.026055 283,405 283,405 L265,381.5 L274,313.5 L203,303 L235.5,250 L243,212 L214,157 L303,92.5 L274,84 L232,70 Z" id="Path-23" fill-opacity="0.829999983" fill="#D8D8D8" sketch:type="MSShapeGroup"></path>
    </g>
</svg>