<?xml version="1.0" encoding="utf-8"?>
<!-- Generator: Adobe Illustrator 18.0.0, SVG Export Plug-In . SVG Version: 6.00 Build 0)  -->
<!DOCTYPE svg PUBLIC "-//W3C//DTD SVG 1.1//EN" "http://www.w3.org/Graphics/SVG/1.1/DTD/svg11.dtd">
<svg version="1.1" id="Слой_1" xmlns="http://www.w3.org/2000/svg" xmlns:xlink="http://www.w3.org/1999/xlink" x="0px" y="0px"
	 viewBox="0 0 281.3 269" enable-background="new 0 0 281.3 269" xml:space="preserve">
<g>
	<path fill="#EDD44C" d="M236.1,122.1c0,50.3-40.8,91-91,91c-50.3,0-91-40.7-91-91c0-50.3,40.8-91,91-91
		C195.4,31.1,236.1,71.9,236.1,122.1z"/>
	<path fill="#EDD44C" d="M70.1,38.9l-8.3,8.3c-4.3,4.3-4.3,11.3,0,15.6l8.1,8.1c6.4-9.4,14.5-17.4,23.9-23.8l-8.1-8.1
		C81.4,34.6,74.4,34.6,70.1,38.9z M220,38.9c-4.3-4.3-11.3-4.3-15.6,0l-8.1,8.1c9.4,6.4,17.5,14.5,23.8,23.9l8.1-8.1
		c4.3-4.3,4.3-11.3,0-15.6L220,38.9z M150.9,10.3h-11.7c-6.1,0-11,5-11,11v11.4c5.5-1,11.1-1.6,16.9-1.6c5.8,0,11.4,0.6,16.9,1.6
		V21.3C162,15.3,157,10.3,150.9,10.3z M44.3,105.3c-6.1,0-11,5-11,11V128c0,6.1,5,11,11,11h11.4c-1-5.5-1.6-11.1-1.6-16.9
		s0.6-11.4,1.6-16.9H44.3z M220.3,173.4c-6.4,9.4-14.5,17.4-23.8,23.8l8.1,8.1c4.3,4.3,11.3,4.3,15.6,0l8.3-8.3
		c4.3-4.3,4.3-11.3,0-15.6L220.3,173.4z M245.9,105.3h-11.4c1,5.5,1.6,11.1,1.6,16.9s-0.6,11.4-1.6,16.9h11.4c6.1,0,11-5,11-11
		v-11.7C256.9,110.2,252,105.3,245.9,105.3z M69.9,173.4l-8.1,8.1c-4.3,4.3-4.3,11.3,0,15.6l8.3,8.3c4.3,4.3,11.3,4.3,15.6,0
		l8.1-8.1C84.4,190.9,76.3,182.8,69.9,173.4z M128.2,211.5V223c0,6.1,5,11,11,11h11.7c6.1,0,11-5,11-11v-11.4
		c-5.5,1-11.1,1.6-16.9,1.6C139.3,213.2,133.7,212.6,128.2,211.5z"/>
	<path fill="#E1A145" d="M128.2,28v4.8c5.5-1,11.1-1.6,16.9-1.6c5.8,0,11.4,0.6,16.9,1.6V28c-5.5-1-11.1-1.6-16.9-1.6
		C139.3,26.4,133.7,27,128.2,28z M220.3,70.8l3.4-3.4c-6.5-9.3-14.6-17.4-23.8-23.8l-3.4,3.4C205.8,53.4,213.9,61.5,220.3,70.8z
		 M50.9,105.3c-1,5.5-1.6,11.1-1.6,16.9s0.6,11.4,1.6,16.9h4.8c-1-5.5-1.6-11.1-1.6-16.9s0.6-11.4,1.6-16.9H50.9z M196.4,197.3
		l3.4,3.4c9.3-6.5,17.4-14.6,23.8-23.8l-3.4-3.4C213.9,182.8,205.8,190.9,196.4,197.3z M239.2,105.3h-4.8c1,5.5,1.6,11.1,1.6,16.9
		s-0.6,11.4-1.6,16.9h4.8c1-5.5,1.6-11.1,1.6-16.9S240.2,110.8,239.2,105.3z M128.2,211.5v4.8c5.5,1,11.1,1.6,16.9,1.6
		c5.8,0,11.4-0.6,16.9-1.6v-4.8c-5.5,1-11.1,1.6-16.9,1.6C139.3,213.2,133.7,212.6,128.2,211.5z M69.9,173.4l-3.4,3.4
		c6.5,9.3,14.6,17.4,23.8,23.9l3.4-3.4C84.4,190.9,76.3,182.8,69.9,173.4z M66.6,67.5l3.4,3.4c6.4-9.4,14.5-17.4,23.9-23.8l-3.4-3.4
		C81.1,50.1,73.1,58.2,66.6,67.5z"/>
	<path opacity="0.15" fill="#FFFFFF" d="M204.5,38.9l-8.1,8.1c-10.2-7-21.9-11.9-34.5-14.2V21.3c0-6.1-5-11-11-11h-11.7
		c-6.1,0-11,5-11,11v11.4C115.6,35.1,104,40,93.8,47l-8.1-8.1c-4.3-4.3-11.3-4.3-15.6,0l-8.3,8.3c-4.3,4.3-4.3,11.3,0,15.6l8.1,8.1
		C63,81,58.1,92.7,55.7,105.3H44.3c-6.1,0-11,5-11,11V128c0,6.1,5,11,11,11h11.4c2.4,12.6,7.3,24.3,14.2,34.4l-8.1,8.1
		c-4.3,4.3-4.3,11.3,0,15.6l4.8,4.8L224.8,43.7l-4.8-4.8C215.8,34.6,208.7,34.6,204.5,38.9z"/>
</g>
</svg>
